<?xml version="1.0" encoding="iso-8859-1"?>
<!-- Generator: Adobe Illustrator 27.6.1, SVG Export Plug-In . SVG Version: 6.00 Build 0)  -->
<svg version="1.1" id="Capa_1" xmlns="http://www.w3.org/2000/svg" xmlns:xlink="http://www.w3.org/1999/xlink" x="0px" y="0px"
	 viewBox="0 0 1920 1080" style="enable-background:new 0 0 1920 1080;" xml:space="preserve">
<g>
	<defs>
		<rect id="SVGID_1_" width="1920" height="1078.521"/>
	</defs>
	<clipPath id="SVGID_00000054953604480828388610000012380628153422024838_">
		<use xlink:href="#SVGID_1_"  style="overflow:visible;"/>
	</clipPath>
	<g style="clip-path:url(#SVGID_00000054953604480828388610000012380628153422024838_);">
		<g>
			<g>
				<path style="fill:#FFFFFF;" d="M1909.349,701.42c-11.403-133.104-53.25-209.168-155.923-289.022
					c-95.064-68.452-117.883-205.348-239.584-247.182c-156.951-52.326-86.809,108.034-62.374,184.836
					c-48.486-44.305-149.799-3.148-176.075,44.154c-11.109,21.751-20.293,44.681-28.185,68.321c-0.13-0.472-0.275-0.985-0.404-1.444
					c-15.537-66.343-45.181-122.811-96.002-169.394c-70.579-66.35-187.75-138.347-289.391-119.991
					c-100.005,16.906-106.767,141.079-92.776,221.556c0.376,0.15,0.862,0.548,0.081,0.548
					c-40.93-25.414-56.932-95.05-80.929-134.583c-45.181-71.997-105.877-100.231-190.578-108.704
					c-43.764-4.229-90.347-1.403-135.521,4.25c-43.757,5.641-100.224,11.28-136.924,35.283
					c-24.004,15.523-36.706,26.824-18.356,49.403c12.703,15.53,29.643,25.414,45.173,39.535
					c-79.046-14.121-142.57,16.939-136.93,103.043c2.826,53.648,15.53,105.877,46.583,149.641
					c28.241,39.521,71.998,62.107,105.877,95.995c-2.826-39.534,12.704-55.058,33.873-86.118
					c25.414-35.29,21.185-74.817,36.701-112.926c24.004-57.884,104.467-21.185,86.118,35.289
					c-14.114,48.001-71.998,42.347-101.634,71.998c-9.884,11.285-15.544,28.226-15.544,45.173c0,11.294,5.66,22.581,8.488,33.873
					c11.285,33.88,21.169,91.764,49.403,112.928c9.877,7.063,21.176,11.299,32.47,14.127c33.88,9.877,79.046,11.28,112.933,4.224
					c-12.71-31.054-39.534-45.167-35.296-80.458c5.646-38.109,21.176-94.583,70.586-74.817
					c-25.414,50.82-26.824,107.287-19.773,163.754c4.626,39.308,21.518,72.264,45.961,100.102
					c-27.481-1.944-55.037,5.167-80.519,25.338c-72.25,53.243-74.152,176.84-66.548,245.292c-1.315-0.807-2.547-1.602-3.841-2.41
					c-0.437-2.396-1.04-4.962-1.437-7.31c0,2.068,0.095,4.326,0.15,6.503c-47.041-29.253-85.582-57.35-122.269-101.373
					c-72.257-87.459-159.717-121.682-273.799-106.48c-110.278,15.215-171.133,79.86-144.508,193.945
					c26.618,106.48,98.875,186.342,190.139,247.189c57.043,38.028,57.043,15.209,121.696-11.403
					c41.82-19.027,79.855-22.826,125.486-26.625c-26.611,64.646-64.646,60.847-117.881,95.069
					c-64.66,38.028-53.251,76.056-41.834,144.508c30.424-11.403,323.238-209.154,254.786-68.452
					c-41.827,83.661-186.341,72.257-262.391,72.257c-7.604,133.104,262.391,308.029,365.077,349.862
					c17.659-94.221,78.603-145.206,131.708-212.809c20.67,32.477,41.745,64.996,62.839,97.958
					c70.265,105.404,148.643,199.203,203.72,306.229c-87.699-66.638-200.112-108.567-303.636-126.972
					c-94.022-17.638-240.945-32.326-299.726,49.958c-57.507,79.779-68.753,189.379-65.947,303.347
					c-15.4-89.15-41.834-169.202-132.071-219.968c-114.083-64.653-247.182-45.625-338.452,45.639
					c-95.069,95.07-121.687,212.952-125.493,342.251c0,91.271,0,228.174,117.881,174.931
					c72.264-26.618,277.612-102.681,334.655-22.821c-98.87,53.244-216.758-3.797-281.404,114.084
					c-26.625,57.043-45.64,247.196,60.847,250.987c7.604,0,41.827-30.41,53.23-34.222c26.618-11.403,57.055-15.202,83.659-15.202
					c30.431,0,140.716,3.799,87.472,49.424c-64.653,49.451-258.597-45.625-216.757,102.681
					c34.222,114.084,205.348,231.979,304.23,285.222c3.799-41.839-34.229-114.09,22.812-133.11
					c76.056-22.806,57.043,95.089,133.097,34.228c49.438-41.825,76.063-121.687,114.084-174.93
					c40.445-49.773,78.478-104.482,124.248-149.861c31.3,120.846,82.934,234.752,167.764,333.608h399.149
					c205.281-239.208,216.622-566.388,214.075-867.312c6.256-13.045,10.61-27.282,13.189-42.121
					c-0.027-2.764-0.048-5.544-0.081-8.302h-332.498c3.291-63.393,2.484-127.006-3.053-189.317
					c-1.622-18.549-4.188-36.872-7.393-55.037c4.252-6.489,8.296-13.135,12.239-19.849c5.571,3.279,11.232,6.448,17.021,9.452
					c0.931-21.409,5.299-46.467,12.841-72.099c2.285-6.291,4.312-12.621,6.152-18.98c25.845-73.059,76.966-144.693,148.327-144.693
					c-98.87,72.25-148.313,292.814,15.215,315.626c148.299,19.02,292.814-30.41,444.939,0
					c-19.027-79.855-11.416-152.112,19.008-231.966c38.021-95.071,117.895-152.112,148.306-250.987
					c19.02-57.048,19.02-117.883,15.222-178.737c-3.806-72.257-11.403-57.041-79.862-76.056
					c-91.271-26.618-45.645-38.028-3.813-83.666c38.042-41.827,15.223-64.64-26.604-106.48
					c-83.673-83.661-209.175-167.32-327.056-114.077c-144.508,68.452-148.313,233.876-110.278,366.967
					c-52.943-54.406-126.349-98.745-200.44-118.745c50.731-94.008,68.328-194.69,83.666-302.04
					c18.193-118.259,17.132-238.276,23.854-358.691c14.393,108.814,57.72,219.002,176.58,195.744
					c-83.659-34.229,19.015-247.182,83.66-231.973c7.604,38.021-19.013,64.646-22.819,98.868
					c-3.806,26.625,15.214,49.438,15.214,68.459c0,15.209-15.214,34.222-15.214,45.633c7.604,155.91,91.271-38.035,129.306-53.237
					c26.611,64.64-19.027,133.092-45.647,190.133c91.272,102.681,148.32-133.097,167.327-182.529
					c72.264,83.661-129.292,285.21,26.619,285.21c53.25,0,95.076-45.632,152.111-30.423c60.854,15.214,64.653,60.847,68.459,117.888
					c98.875-72.256,45.64-216.764,3.799-304.23C1932.154,872.538,1920.752,804.094,1909.349,701.42z M1224.902,548.733
					c-3.97,20.52-7.215,41.307-9.836,62.257c-0.664-3.867-1.13-7.782-2.149-11.56c-11.294-38.116-33.88-67.761-56.467-100.231
					c-19.76-26.824-60.697-66.35-63.524-100.231C1166.949,419.954,1194.607,486.195,1224.902,548.733z M578.345,1595.082
					c-0.151-2.355-0.09-4.442,0.062-6.399c6.912,11.855,13.928,23.66,21.06,35.433
					C587.769,1618.395,579.535,1609.339,578.345,1595.082z M805.218,1892.844c-53.544-72.305-92.586-147.027-141.324-219.756
					c8.747-12.525,17.097-25.714,24.742-39.978c-12.436,0-32.477,1.218-52.107-0.39c-12.326-18.611-24.92-39.048-37.582-61.088
					c29.417,2.348,81.51,38.665,97.287,38.665c95.076,3.799,60.847-136.909,114.084-186.333
					c-26.611-34.236-79.855-53.25-117.883-64.653c64.646-57.048,129.293,19.013,125.494-98.875
					c-3.806-87.466-26.619-197.752-72.257-277.605c-2.547-4.456-5.353-8.967-8.331-13.483
					c21.506,14.078,42.258,29.643,61.957,49.349c30.129,30.122,59.321,66.042,77.341,106.069
					c-1.313,6.249-2.429,12.504-3.832,18.753c-23.505,114.604-44.078,235.087-52.894,352.621
					c-8.81,105.789-2.93,226.265,23.503,332.053c14.73,58.89,32.902,115.473,48.042,173.357
					C863.664,1964.52,834.164,1928.669,805.218,1892.844z M768.963,2393.64c-19.739-73.947-60.642-136.232-141.181-155.876
					c-140.709-30.424-298.522,64.64-370.778,186.349c-0.678-4.477-1.315-8.932-1.965-13.402
					c1.424-74.789,6.071-156.437,15.373-212.247c20.568-135.178,73.461-217.463,238.024-202.767
					c172.46,15.229,312.005,100.587,416.911,229.447c3.593,55.298,4.825,112.011,4.051,168.497H768.963z M1088.039,1416.818
					c-84.687-12.574-165.603,10.534-212.898,91.265c0.904-23.148,2.061-45.968,3.545-67.775
					c8.823-117.541,26.441-235.087,44.079-355.57c1.128-7.344,1.957-14.64,2.93-21.957c7.536-20.124,16.064-39.712,26.063-58.206
					c38.125-66.35,91.764-117.171,136.938-176.463c49.403-66.338,4.229-100.231-7.063-169.394
					c-7.058-45.174,28.233-14.113,42.354,5.639c16.939,24.004,21.162,53.648,33.873,79.061
					c23.949-14.367,40.778-36.433,50.313-61.245c-4.394,62.613-5.126,124.775-6.249,182.194
					C1196.065,1051.788,1175.853,1253.427,1088.039,1416.818z M1436.402,353.898c6.099,2.512,12.369,5.428,18.898,8.959
					c0.554,2.02,1.068,3.984,1.498,5.805C1449.832,362.768,1443.061,358.053,1436.402,353.898z"/>
			</g>
		</g>
		<g>
			
				<image style="overflow:visible;" width="2453" height="3326" xlink:href="68DAD556.png"  transform="matrix(1 0 0 1 -389.8973 65.9307)">
			</image>
		</g>
	</g>
</g>
</svg>
